<?xml version="1.0" encoding="utf-8"?>
<!-- Generator: Adobe Illustrator 25.4.1, SVG Export Plug-In . SVG Version: 6.00 Build 0)  -->
<svg version="1.1" id="Layer_1" xmlns="http://www.w3.org/2000/svg" xmlns:xlink="http://www.w3.org/1999/xlink" x="0px" y="0px"
	 viewBox="0 0 348 104" style="enable-background:new 0 0 348 104;" xml:space="preserve">
<style type="text/css">
	.st0{fill:#231F20;}
	.st1{fill:none;stroke:#000000;stroke-width:0.8781;stroke-miterlimit:10;}
	.st2{fill:none;stroke:#1D1D1B;stroke-width:0.5;stroke-miterlimit:10;}
	.st3{fill-rule:evenodd;clip-rule:evenodd;fill:#00AEEF;}
	.st4{fill-rule:evenodd;clip-rule:evenodd;fill:#FFFFFF;}
	.st5{fill:#808285;}
	.st6{font-family:'Poppins-Medium';}
	.st7{font-size:21.4794px;}
</style>
<g>
	<g>
		<path class="st0" d="M185.3,11.3h-54.2l-1.7,2.2h4.1V28l2.2-1.5v-5.6h4.1v7.2l2.2-1.5v-6.4l-1.3-1.4h-3.2l5.5-5.2h4.9l-3,2.4v12
			l2-1.6v-4.2h4.1V28l2-1.5V16l-3-2.4h5.8v12.1l5.3,2.3l3-1.9v-2.4l-3.1,2.2l-3.1-1.5v-11h8l-2.3,1.4l0.9,1.5l1.5-0.9v12.5l2.2-1.6
			v-4.1l6-4.4l-5.4-4.3h10.1l-3.2,2.4v12l2.2-1.6v-4.1h4.1v5.7l2-1.7V15.7l-3-2.4h2.7L185.3,11.3z M135.7,17.4v-3.9h4L135.7,17.4z
			 M150.8,16.5V20h-4.1v-3.5l2-1.4L150.8,16.5z M171.2,17.7l-3.1,2.2v-4.5L171.2,17.7z M181.8,16.5V20h-4.1v-3.5l2.2-1.4L181.8,16.5
			z"/>
	</g>
	<g>
		<polygon class="st0" points="188,22.1 191.1,22.1 192,20.4 188.7,20.4 		"/>
	</g>
	<g>
		<path class="st0" d="M190,13.4h3.6l-2.3,2.2l1,1l2.2-1.9l1.6,1.5V28l2.2-1.6V16.1l1.9-1.5l1.8,1.9l1.1-1l-2.2-2.3h6.6l-3.1,2.4v12
			l2-1.6l0.1-4.1h4.1v5.8l2-1.6V15.7l-3-2.4h6.5l-2.2,1.3l0.8,1l1.4-0.8V28l2-1.6v-4.1h4V28l2.2-1.7v-5.5h-3.8l4.2-3.1l-5.8-4.1h8.7
			l-2.3,1.3l0.5,1.1l1.8-0.8V25l4.1,3.1l4-3.2V13.5h2.8l2-2.2h-49L190,13.4z M230,13.4h4v10.3l-2,1.6l-2-1.5V13.4L230,13.4z
			 M218.2,15.2l3.1,2.4l-3.1,2.3V15.2z M210.6,16.5V20h-4.1l-0.1-3.5l2.2-1.3L210.6,16.5z M199.4,13.4l-2.3,1.7l-2.3-1.7H199.4z"/>
	</g>
	<g>
		<path class="st0" d="M243.2,6.9c-1.2,0-2.3,1-2.3,2.3s1,2.3,2.3,2.3c1.2,0,2.2-1,2.2-2.3C245.5,8,244.4,6.9,243.2,6.9 M243.2,11
			c-1,0-1.8-0.8-1.8-1.8s0.8-1.8,1.8-1.8s1.8,0.8,1.8,1.8C245.1,10.1,244.3,11,243.2,11"/>
	</g>
	<g>
		<path class="st0" d="M243.8,9.4c0,0-0.1-0.1-0.2-0.1c0.2,0,0.4-0.1,0.5-0.2c0.1-0.1,0.2-0.3,0.2-0.4s0-0.3-0.1-0.4
			c-0.1-0.1-0.1-0.2-0.3-0.2c-0.1,0-0.3-0.1-0.5-0.1h-1.1v2.4h0.3V9.3h0.4c0.1,0,0.1,0,0.2,0c0.1,0,0.1,0,0.1,0.1
			c0,0,0.1,0.1,0.2,0.2c0.1,0.1,0.1,0.2,0.2,0.3l0.3,0.5h0.4L244,9.8C244,9.6,243.9,9.5,243.8,9.4 M243.3,9h-0.8V8.2h0.8
			c0.2,0,0.3,0,0.4,0.1c0.1,0.1,0.1,0.2,0.1,0.3s0,0.1-0.1,0.2c0,0.1-0.1,0.1-0.2,0.1C243.7,9,243.4,9,243.3,9"/>
	</g>
</g>
<line class="st1" x1="129.4" y1="73.3" x2="326.6" y2="73.3"/>
<line class="st2" x1="113.3" y1="10.9" x2="113.3" y2="97.1"/>
<g>
	<g>
		<rect x="21.4" y="15.6" class="st3" width="72.3" height="72.3"/>
	</g>
	<g>
		<path class="st4" d="M43.6,22.1C43.7,22.1,43.7,22.1,43.6,22.1c5.6-2.8,12,0.8,13.6,5.1c1.4-4,6.9-7.5,12.4-5.7
			c0.1,0,0.1,0,0.1,0.1c6.3,2,8.3,9.8,5.7,14c4.4-0.5,10,3.4,10.4,9.2c0,0.1,0,0.1,0,0.1c0.4,6.5-5.8,11.2-10.5,10.6
			c2.7,3.2,3.2,9.1-0.4,13.1l-0.1,0.1c-5,5.4-12.4,3.5-16.1-2.2l0.1,15.3h2.6v2.9H53v-2.9h2.8V66.2c-0.1,0.4-0.3,0.8-0.4,1.3
			c-2.1,4.7-10.9,6.5-15.6,1.2c-0.1-0.1-0.1-0.1-0.1-0.1c-3.5-4-2.9-9.8-0.3-12.9c-4.6,0-10.3-4.6-9.9-10.7c0-0.1,0-0.1,0-0.1
			c0.4-5.5,5.3-9.2,9.5-9.3C36.7,31.7,38.1,24.8,43.6,22.1 M55.8,64.1V36.7h2.9v15.9c0.4,2.5,3.9-0.7,5.8-3.2
			c0.2-0.2,2.4-3.2,3.2-4.6l0.6,0.3c-1.4,3.2-4.6,11.6-9.8,13.2c0.4,2.5,1.5,6.1,3.4,8.1c2.8,2.9,6.6,3.2,9.7,1.5
			c0.6-0.3,0.9-0.7,1.3-1.3c2.8-3.8,1.8-8.8-1.6-10.6c-0.8-0.3-3.1-0.6-4.1,3.5c-0.3,0.2-0.5,0.1-0.6-0.2c-0.7-2.8,0.5-4.6,2.8-5.6
			c0,0,0.9-0.3,2-0.3c-1.4-2-0.5-4.8,1.7-6.2c0.7-0.5,0.8,0,0.8,0.2c-2.2,3.5-0.6,4.6,0.6,5.4c3.1,1.8,8.3-1.9,8.7-7.1
			c-0.6-5.1-5-8.4-9-7.1c-0.8,0.4-2.6,1.8-0.3,5.5c-0.1,0.4-0.3,0.4-0.5,0.3c-2.5-1.4-3-3.6-2.2-5.9c0,0,0.1-0.2,0.2-0.3
			c-2.1,0.1-4-1.7-4.5-4c-0.2-0.8,0.3-0.8,0.4-0.7c2.5,3.4,4.1,2.3,5.2,1.4c2.8-2.3,1.3-8.4-3.3-10.7c-5-1.4-9.7,1.5-9.9,5.7
			c0.2,0.8,0.8,3.1,5,2.3c0.3,0.3,0.3,0.4,0.1,0.6c-2.3,1.8-4.5,1.5-6.2-0.2c0,0-0.5-0.6-0.9-1.4c-1.1,2.9-4.5,3.4-6.8,1.7
			c-0.7-0.5-0.3-0.8-0.2-0.8c4.1,0.7,4.5-1.3,4.8-2.5c0.4-3.5-4.9-6.9-9.8-5.4c-4.5,2.4-6,7.8-3.2,10.9c0.7,0.5,2.7,1.7,5.1-1.8
			c0.4-0.1,0.5,0.2,0.4,0.4c-0.4,2.5-1.8,3.9-3.8,4.1c0.2,0.3,0.3,0.5,0.3,0.5c0.8,2.3,0.3,4.4-2.2,5.9c-0.2,0.2-0.4,0.1-0.5-0.3
			c2.4-3.6,0.5-5-0.3-5.5c-4-1.3-8.4,1.9-9,7.1c0.4,5.1,5.5,8.7,8.7,7.1c1.1-0.7,2.8-1.8,0.6-5.4c-0.1-0.2,0.1-0.6,0.8-0.2
			c2.1,1.4,3,4.1,1.7,6.2c0.8,0.1,1.5,0.3,1.5,0.3c2.2,1,3.3,2.9,2.6,5.7c-0.1,0.3-0.3,0.4-0.6,0.2c-0.9-4.2-3.2-3.9-4-3.6
			c-3.8,1.8-4.5,7.4-1.3,11.3c4,3.3,10.2,2.2,11.1-1.3c0.3-1.3,0.6-3.2-3.4-4.2c-0.2-0.1-0.4-0.5,0.4-0.7
			C52.7,60.6,55.2,61.9,55.8,64.1"/>
	</g>
</g>
<g>
	<path class="st5" d="M129.4,39.7h13.7c1.2,0,2.4,0.1,3.5,0.4c1.1,0.3,2.1,0.7,3,1.4c0.9,0.6,1.6,1.4,2.1,2.4s0.8,2.1,0.8,3.4
		c0,1.5-0.4,2.9-1.1,4.1c-0.7,1.2-1.8,2.1-3.1,2.6v0.1c0.7,0.2,1.3,0.4,1.7,0.9c0.5,0.4,0.9,1,1.2,1.6s0.5,1.2,0.7,1.9
		s0.3,1.4,0.3,2.1V61c0.1,0.8,0.1,1.4,0.1,1.7c0,0.4,0.1,0.8,0.2,1.4c0.1,0.6,0.2,1.1,0.3,1.5s0.3,0.8,0.5,1h-6.9
		c-0.2-0.3-0.4-0.8-0.5-1.5s-0.2-1.5-0.3-2.3c0-0.3,0-0.4,0-0.5c-0.1-0.9-0.1-1.6-0.2-2.2c-0.1-0.6-0.3-1.1-0.6-1.7
		c-0.3-0.5-0.7-0.9-1.2-1.2s-1.1-0.5-1.9-0.5h-5.3v9.8h-7V39.7z M136.4,51.4h5.9c2.2,0,3.2-1.1,3.2-3.2c0-1-0.3-1.7-1-2.2
		s-1.5-0.7-2.5-0.7h-5.6L136.4,51.4L136.4,51.4z"/>
	<path class="st5" d="M165.4,39.7h7.1l10,26.9h-7.3l-1.7-4.8h-9.4l-1.7,4.8h-7.2L165.4,39.7z M165.8,56.6h6.1l-3-9.4h-0.1
		L165.8,56.6z"/>
	<path class="st5" d="M185.3,39.7h11.5c4.1,0,7.3,1.2,9.7,3.5c2.3,2.4,3.5,5.6,3.5,9.8c0,4.4-1.2,7.7-3.5,10
		c-2.3,2.3-5.5,3.5-9.7,3.5h-11.5V39.7z M192.3,60.6h3.3c2.7,0,4.6-0.6,5.7-1.8c1.1-1.2,1.7-3.1,1.7-5.8c0-2.4-0.6-4.2-1.9-5.4
		c-1.3-1.2-3.1-1.8-5.5-1.8h-3.3V60.6z"/>
	<polygon class="st5" points="213.1,37.5 220.1,30.4 220.1,66.6 213.1,66.6 	"/>
	<path class="st5" d="M232.2,39.7h7.1l10,26.9H242l-1.7-4.8h-9.4l-1.7,4.8H222L232.2,39.7z M232.7,56.6h6.1l-3-9.4h-0.1L232.7,56.6z
		"/>
	<polygon class="st5" points="251.3,39.7 258.5,39.7 267.8,56.3 267.9,56.3 267.9,39.7 274.5,39.7 274.5,66.6 267.3,66.6 258,49.8 
		257.9,49.8 257.9,66.6 251.3,66.6 	"/>
	<path class="st5" d="M295.6,49.3c-0.2-1.3-0.7-2.3-1.7-3.1c-1-0.7-2.2-1.1-3.7-1.1c-1.1,0-2,0.2-2.8,0.7c-0.8,0.4-1.5,1-2,1.8
		c-0.5,0.7-0.9,1.6-1.1,2.6s-0.4,1.9-0.4,3c0,1,0.1,2,0.4,3c0.2,1,0.6,1.8,1.1,2.6c0.5,0.7,1.2,1.3,2,1.8c0.8,0.4,1.7,0.7,2.8,0.7
		c1.6,0,2.9-0.4,3.8-1.3c0.9-0.9,1.5-2.1,1.6-3.7h7c-0.1,1.7-0.5,3.2-1.1,4.6c-0.6,1.4-1.5,2.5-2.6,3.5c-1.1,0.9-2.4,1.7-3.8,2.2
		c-1.5,0.5-3,0.8-4.7,0.8c-2,0-3.8-0.4-5.5-1.1s-3.1-1.7-4.3-3c-1.2-1.3-2.1-2.8-2.7-4.5s-0.9-3.5-0.9-5.5c0-1.9,0.3-3.7,0.9-5.5
		c0.6-1.7,1.5-3.2,2.7-4.5s2.6-2.3,4.3-3c1.7-0.7,3.5-1.1,5.5-1.1c1.5,0,2.9,0.2,4.4,0.7c1.4,0.5,2.7,1.1,3.9,2
		c1.2,0.9,2.1,2,2.8,3.2c0.7,1.3,1.1,2.7,1.1,4.2H295.6z"/>
	<polygon class="st5" points="304.8,39.7 326.2,39.7 326.2,45.3 311.8,45.3 311.8,50 325,50 325,55.5 311.8,55.5 311.8,60.6 
		326.6,60.6 326.6,66.6 304.8,66.6 	"/>
</g>
<text transform="matrix(1 0 0 1 129.4 92.6992)" class="st6 st7">Goregaon west</text>
</svg>
